<svg width="350" height="70" viewBox="0 0 350 70" fill="none" xmlns="http://www.w3.org/2000/svg">
<g id="Logo">
<g id="Group 1">
<ellipse id="Ellipse 1" cx="34.375" cy="34.875" rx="34.375" ry="34.875" fill="#19A051"/>
<ellipse id="Ellipse 2" cx="75.625" cy="34.875" rx="34.375" ry="34.875" fill="#2DD673"/>
</g>
<g id="CampusKobo">
<path d="M126.92 34.675C126.92 32.4777 127.41 30.515 128.392 28.787C129.394 27.0377 130.749 25.683 132.456 24.723C134.184 23.7417 136.114 23.251 138.248 23.251C140.744 23.251 142.93 23.891 144.808 25.171C146.685 26.451 147.997 28.2217 148.744 30.483H143.592C143.08 29.4163 142.354 28.6163 141.416 28.083C140.498 27.5497 139.432 27.283 138.216 27.283C136.914 27.283 135.752 27.5923 134.728 28.211C133.725 28.8083 132.936 29.6617 132.36 30.771C131.805 31.8803 131.528 33.1817 131.528 34.675C131.528 36.147 131.805 37.4483 132.36 38.579C132.936 39.6883 133.725 40.5523 134.728 41.171C135.752 41.7683 136.914 42.067 138.216 42.067C139.432 42.067 140.498 41.8003 141.416 41.267C142.354 40.7123 143.08 39.9017 143.592 38.835H148.744C147.997 41.1177 146.685 42.899 144.808 44.179C142.952 45.4377 140.765 46.067 138.248 46.067C136.114 46.067 134.184 45.587 132.456 44.627C130.749 43.6457 129.394 42.291 128.392 40.563C127.41 38.835 126.92 36.8723 126.92 34.675ZM151.418 36.947C151.418 35.155 151.77 33.5657 152.474 32.179C153.2 30.7923 154.17 29.7257 155.386 28.979C156.624 28.2323 158 27.859 159.514 27.859C160.837 27.859 161.989 28.1257 162.97 28.659C163.973 29.1923 164.773 29.8643 165.37 30.675V28.147H169.882V45.875H165.37V43.283C164.794 44.115 163.994 44.8083 162.97 45.363C161.968 45.8963 160.805 46.163 159.482 46.163C157.989 46.163 156.624 45.779 155.386 45.011C154.17 44.243 153.2 43.1657 152.474 41.779C151.77 40.371 151.418 38.7603 151.418 36.947ZM165.37 37.011C165.37 35.923 165.157 34.995 164.73 34.227C164.304 33.4377 163.728 32.8403 163.002 32.435C162.277 32.0083 161.498 31.795 160.666 31.795C159.834 31.795 159.066 31.9977 158.362 32.403C157.658 32.8083 157.082 33.4057 156.634 34.195C156.208 34.963 155.994 35.8803 155.994 36.947C155.994 38.0137 156.208 38.9523 156.634 39.763C157.082 40.5523 157.658 41.1603 158.362 41.587C159.088 42.0137 159.856 42.227 160.666 42.227C161.498 42.227 162.277 42.0243 163.002 41.619C163.728 41.1923 164.304 40.595 164.73 39.827C165.157 39.0377 165.37 38.099 165.37 37.011ZM196.274 27.891C198.45 27.891 200.199 28.563 201.522 29.907C202.866 31.2297 203.538 33.0857 203.538 35.475V45.875H199.058V36.083C199.058 34.6963 198.706 33.6403 198.002 32.915C197.298 32.1683 196.338 31.795 195.122 31.795C193.906 31.795 192.935 32.1683 192.21 32.915C191.506 33.6403 191.154 34.6963 191.154 36.083V45.875H186.674V36.083C186.674 34.6963 186.322 33.6403 185.618 32.915C184.914 32.1683 183.954 31.795 182.738 31.795C181.5 31.795 180.519 32.1683 179.794 32.915C179.09 33.6403 178.738 34.6963 178.738 36.083V45.875H174.258V28.147H178.738V30.291C179.314 29.5443 180.05 28.9577 180.946 28.531C181.863 28.1043 182.866 27.891 183.954 27.891C185.34 27.891 186.578 28.1897 187.666 28.787C188.754 29.363 189.596 30.195 190.194 31.283C190.77 30.259 191.602 29.4377 192.69 28.819C193.799 28.2003 194.994 27.891 196.274 27.891ZM212.269 30.707C212.845 29.8963 213.634 29.2243 214.637 28.691C215.661 28.1363 216.824 27.859 218.125 27.859C219.64 27.859 221.005 28.2323 222.221 28.979C223.458 29.7257 224.429 30.7923 225.133 32.179C225.858 33.5443 226.221 35.1337 226.221 36.947C226.221 38.7603 225.858 40.371 225.133 41.779C224.429 43.1657 223.458 44.243 222.221 45.011C221.005 45.779 219.64 46.163 218.125 46.163C216.824 46.163 215.672 45.8963 214.669 45.363C213.688 44.8297 212.888 44.1577 212.269 43.347V54.323H207.789V28.147H212.269V30.707ZM221.645 36.947C221.645 35.8803 221.421 34.963 220.973 34.195C220.546 33.4057 219.97 32.8083 219.245 32.403C218.541 31.9977 217.773 31.795 216.941 31.795C216.13 31.795 215.362 32.0083 214.637 32.435C213.933 32.8403 213.357 33.4377 212.909 34.227C212.482 35.0163 212.269 35.9443 212.269 37.011C212.269 38.0777 212.482 39.0057 212.909 39.795C213.357 40.5843 213.933 41.1923 214.637 41.619C215.362 42.0243 216.13 42.227 216.941 42.227C217.773 42.227 218.541 42.0137 219.245 41.587C219.97 41.1603 220.546 40.5523 220.973 39.763C221.421 38.9737 221.645 38.035 221.645 36.947ZM246.213 28.147V45.875H241.701V43.635C241.125 44.403 240.367 45.011 239.429 45.459C238.511 45.8857 237.509 46.099 236.421 46.099C235.034 46.099 233.807 45.811 232.741 45.235C231.674 44.6377 230.831 43.7737 230.213 42.643C229.615 41.491 229.317 40.1257 229.317 38.547V28.147H233.797V37.907C233.797 39.315 234.149 40.403 234.853 41.171C235.557 41.9177 236.517 42.291 237.733 42.291C238.97 42.291 239.941 41.9177 240.645 41.171C241.349 40.403 241.701 39.315 241.701 37.907V28.147H246.213ZM257.417 46.163C255.966 46.163 254.665 45.907 253.513 45.395C252.361 44.8617 251.443 44.147 250.761 43.251C250.099 42.355 249.737 41.363 249.673 40.275H254.185C254.27 40.9577 254.601 41.523 255.177 41.971C255.774 42.419 256.51 42.643 257.385 42.643C258.238 42.643 258.899 42.4723 259.369 42.131C259.859 41.7897 260.105 41.3523 260.105 40.819C260.105 40.243 259.806 39.8163 259.209 39.539C258.633 39.2403 257.705 38.9203 256.425 38.579C255.102 38.259 254.014 37.9283 253.161 37.587C252.329 37.2457 251.603 36.723 250.985 36.019C250.387 35.315 250.089 34.3657 250.089 33.171C250.089 32.1897 250.366 31.2937 250.921 30.483C251.497 29.6723 252.307 29.0323 253.353 28.563C254.419 28.0937 255.667 27.859 257.097 27.859C259.209 27.859 260.894 28.3923 262.153 29.459C263.411 30.5043 264.105 31.923 264.233 33.715H259.945C259.881 33.011 259.582 32.4563 259.049 32.051C258.537 31.6243 257.843 31.411 256.969 31.411C256.158 31.411 255.529 31.5603 255.081 31.859C254.654 32.1577 254.441 32.5737 254.441 33.107C254.441 33.7043 254.739 34.163 255.337 34.483C255.934 34.7817 256.862 35.091 258.121 35.411C259.401 35.731 260.457 36.0617 261.289 36.403C262.121 36.7443 262.835 37.2777 263.433 38.003C264.051 38.707 264.371 39.6457 264.393 40.819C264.393 41.843 264.105 42.7603 263.529 43.571C262.974 44.3817 262.163 45.0217 261.097 45.491C260.051 45.939 258.825 46.163 257.417 46.163Z" fill="white"/>
<path d="M280.678 45.875L272.55 35.923V45.875H268.07V23.539H272.55V33.555L280.678 23.539H286.086L276.87 34.611L286.342 45.875H280.678ZM297.161 46.163C295.454 46.163 293.918 45.7897 292.553 45.043C291.188 44.275 290.11 43.1977 289.321 41.811C288.553 40.4243 288.169 38.8243 288.169 37.011C288.169 35.1977 288.564 33.5977 289.353 32.211C290.164 30.8243 291.262 29.7577 292.649 29.011C294.036 28.243 295.582 27.859 297.289 27.859C298.996 27.859 300.542 28.243 301.929 29.011C303.316 29.7577 304.404 30.8243 305.193 32.211C306.004 33.5977 306.409 35.1977 306.409 37.011C306.409 38.8243 305.993 40.4243 305.161 41.811C304.35 43.1977 303.241 44.275 301.833 45.043C300.446 45.7897 298.889 46.163 297.161 46.163ZM297.161 42.259C297.972 42.259 298.729 42.067 299.433 41.683C300.158 41.2777 300.734 40.6803 301.161 39.891C301.588 39.1017 301.801 38.1417 301.801 37.011C301.801 35.3257 301.353 34.035 300.457 33.139C299.582 32.2217 298.505 31.763 297.225 31.763C295.945 31.763 294.868 32.2217 293.993 33.139C293.14 34.035 292.713 35.3257 292.713 37.011C292.713 38.6963 293.129 39.9977 293.961 40.915C294.814 41.811 295.881 42.259 297.161 42.259ZM314.175 30.739C314.751 29.8857 315.541 29.1923 316.543 28.659C317.567 28.1257 318.73 27.859 320.031 27.859C321.546 27.859 322.911 28.2323 324.127 28.979C325.365 29.7257 326.335 30.7923 327.039 32.179C327.765 33.5443 328.127 35.1337 328.127 36.947C328.127 38.7603 327.765 40.371 327.039 41.779C326.335 43.1657 325.365 44.243 324.127 45.011C322.911 45.779 321.546 46.163 320.031 46.163C318.709 46.163 317.546 45.907 316.543 45.395C315.562 44.8617 314.773 44.179 314.175 43.347V45.875H309.695V22.195H314.175V30.739ZM323.551 36.947C323.551 35.8803 323.327 34.963 322.879 34.195C322.453 33.4057 321.877 32.8083 321.151 32.403C320.447 31.9977 319.679 31.795 318.847 31.795C318.037 31.795 317.269 32.0083 316.543 32.435C315.839 32.8403 315.263 33.4377 314.815 34.227C314.389 35.0163 314.175 35.9443 314.175 37.011C314.175 38.0777 314.389 39.0057 314.815 39.795C315.263 40.5843 315.839 41.1923 316.543 41.619C317.269 42.0243 318.037 42.227 318.847 42.227C319.679 42.227 320.447 42.0137 321.151 41.587C321.877 41.1603 322.453 40.5523 322.879 39.763C323.327 38.9737 323.551 38.035 323.551 36.947ZM339.255 46.163C337.548 46.163 336.012 45.7897 334.647 45.043C333.281 44.275 332.204 43.1977 331.415 41.811C330.647 40.4243 330.263 38.8243 330.263 37.011C330.263 35.1977 330.657 33.5977 331.447 32.211C332.257 30.8243 333.356 29.7577 334.743 29.011C336.129 28.243 337.676 27.859 339.383 27.859C341.089 27.859 342.636 28.243 344.023 29.011C345.409 29.7577 346.497 30.8243 347.287 32.211C348.097 33.5977 348.503 35.1977 348.503 37.011C348.503 38.8243 348.087 40.4243 347.255 41.811C346.444 43.1977 345.335 44.275 343.927 45.043C342.54 45.7897 340.983 46.163 339.255 46.163ZM339.255 42.259C340.065 42.259 340.823 42.067 341.527 41.683C342.252 41.2777 342.828 40.6803 343.255 39.891C343.681 39.1017 343.895 38.1417 343.895 37.011C343.895 35.3257 343.447 34.035 342.551 33.139C341.676 32.2217 340.599 31.763 339.319 31.763C338.039 31.763 336.961 32.2217 336.087 33.139C335.233 34.035 334.807 35.3257 334.807 37.011C334.807 38.6963 335.223 39.9977 336.055 40.915C336.908 41.811 337.975 42.259 339.255 42.259Z" fill="#2BAE60"/>
</g>
</g>
</svg>
